<?xml version="1.0" encoding="UTF-8" standalone="no"?>
<svg
   xmlns:dc="http://purl.org/dc/elements/1.1/"
   xmlns:cc="http://creativecommons.org/ns#"
   xmlns:rdf="http://www.w3.org/1999/02/22-rdf-syntax-ns#"
   xmlns:svg="http://www.w3.org/2000/svg"
   xmlns="http://www.w3.org/2000/svg"
   xmlns:sodipodi="http://sodipodi.sourceforge.net/DTD/sodipodi-0.dtd"
   xmlns:inkscape="http://www.inkscape.org/namespaces/inkscape"
   id="svg880"
   version="1.1"
   viewBox="0 0 132.29166 132.29167"
   height="500"
   width="500"
   sodipodi:docname="color-submode-unique-bttn.svg"
   inkscape:version="0.92.2 (5c3e80d, 2017-08-06)">
  <sodipodi:namedview
     pagecolor="#ffffff"
     bordercolor="#666666"
     borderopacity="1"
     objecttolerance="10"
     gridtolerance="10"
     guidetolerance="10"
     inkscape:pageopacity="0"
     inkscape:pageshadow="2"
     inkscape:window-width="2560"
     inkscape:window-height="1360"
     id="namedview2637"
     showgrid="false"
     showguides="false"
     inkscape:zoom="1.4217003"
     inkscape:cx="127.46995"
     inkscape:cy="211.69618"
     inkscape:window-x="-11"
     inkscape:window-y="-11"
     inkscape:window-maximized="1"
     inkscape:current-layer="svg880" />
  <defs
     id="defs874">
    <marker
       inkscape:stockid="EmptyTriangleOutL"
       orient="auto"
       refY="0.0"
       refX="0.0"
       id="EmptyTriangleOutL"
       style="overflow:visible"
       inkscape:isstock="true">
      <path
         id="path1615"
         d="M 5.77,0.0 L -2.88,5.0 L -2.88,-5.0 L 5.77,0.0 z "
         style="fill-rule:evenodd;fill:#ffffff;stroke:#4d4d4d;stroke-width:1pt;stroke-opacity:1"
         transform="scale(0.8) translate(-6,0)" />
    </marker>
    <marker
       inkscape:stockid="Arrow1Lend"
       orient="auto"
       refY="0.0"
       refX="0.0"
       id="Arrow1Lend"
       style="overflow:visible;"
       inkscape:isstock="true">
      <path
         id="path1458"
         d="M 0.0,0.0 L 5.0,-5.0 L -12.5,0.0 L 5.0,5.0 L 0.0,0.0 z "
         style="fill-rule:evenodd;stroke:#000000;stroke-width:1pt;stroke-opacity:1;fill:#000000;fill-opacity:1"
         transform="scale(0.8) rotate(180) translate(12.5,0)" />
    </marker>
    <marker
       inkscape:stockid="DotL"
       orient="auto"
       refY="0.0"
       refX="0.0"
       id="DotL"
       style="overflow:visible"
       inkscape:isstock="true">
      <path
         id="path1516"
         d="M -2.5,-1.0 C -2.5,1.7600000 -4.7400000,4.0 -7.5,4.0 C -10.260000,4.0 -12.5,1.7600000 -12.5,-1.0 C -12.5,-3.7600000 -10.260000,-6.0 -7.5,-6.0 C -4.7400000,-6.0 -2.5,-3.7600000 -2.5,-1.0 z "
         style="fill-rule:evenodd;stroke:#4d4d4d;stroke-width:1pt;stroke-opacity:1;fill:#4d4d4d;fill-opacity:1"
         transform="scale(0.8) translate(7.4, 1)" />
    </marker>
    <marker
       inkscape:stockid="EmptyTriangleOutL"
       orient="auto"
       refY="0"
       refX="0"
       id="EmptyTriangleOutL-1"
       style="overflow:visible"
       inkscape:isstock="true">
      <path
         inkscape:connector-curvature="0"
         id="path1615-9"
         d="M 5.77,0 -2.88,5 V -5 Z"
         style="fill:#ffffff;fill-rule:evenodd;stroke:#4d4d4d;stroke-width:1.00000003pt;stroke-opacity:1"
         transform="matrix(0.8,0,0,0.8,-4.8,0)" />
    </marker>
    <marker
       inkscape:stockid="EmptyTriangleOutL"
       orient="auto"
       refY="0"
       refX="0"
       id="EmptyTriangleOutL-1-3"
       style="overflow:visible"
       inkscape:isstock="true">
      <path
         inkscape:connector-curvature="0"
         id="path1615-9-3"
         d="M 5.77,0 -2.88,5 V -5 Z"
         style="fill:#ffffff;fill-rule:evenodd;stroke:#4d4d4d;stroke-width:1.00000003pt;stroke-opacity:1"
         transform="matrix(0.8,0,0,0.8,-4.8,0)" />
    </marker>
    <marker
       inkscape:stockid="EmptyTriangleOutL"
       orient="auto"
       refY="0"
       refX="0"
       id="EmptyTriangleOutL-1-3-2"
       style="overflow:visible"
       inkscape:isstock="true">
      <path
         inkscape:connector-curvature="0"
         id="path1615-9-3-4"
         d="M 5.77,0 -2.88,5 V -5 Z"
         style="fill:#ffffff;fill-rule:evenodd;stroke:#4d4d4d;stroke-width:1.00000003pt;stroke-opacity:1"
         transform="matrix(0.8,0,0,0.8,-4.8,0)" />
    </marker>
  </defs>
  <metadata
     id="metadata877">
    <rdf:RDF>
      <cc:Work
         rdf:about="">
        <dc:format>image/svg+xml</dc:format>
        <dc:type
           rdf:resource="http://purl.org/dc/dcmitype/StillImage" />
        <dc:title></dc:title>
      </cc:Work>
    </rdf:RDF>
  </metadata>
  <g
     transform="translate(0,-164.70831)"
     id="layer1" />
  <g
     aria-label="Unique"
     transform="scale(0.90866448,1.1005162)"
     style="font-style:normal;font-weight:normal;font-size:41.36175156px;line-height:125%;font-family:sans-serif;letter-spacing:0px;word-spacing:0px;fill:#4d4d4d;fill-opacity:1;stroke:none;stroke-width:1.03404367px;stroke-linecap:butt;stroke-linejoin:miter;stroke-opacity:1"
     id="text10018">
    <path
       d="m 34.250176,57.05591 q 0,2.383148 -0.706866,4.261392 -0.68667,1.858047 -1.979225,3.150602 -1.292554,1.292555 -3.150602,1.959028 -1.858047,0.666474 -4.220999,0.666474 -2.16099,0 -3.938253,-0.626081 -1.777262,-0.626082 -3.049621,-1.837852 -1.272358,-1.231966 -1.959028,-3.069817 -0.68667,-1.837851 -0.68667,-4.241195 V 41.100938 q 0,-0.161569 0.08079,-0.282746 0.08078,-0.121177 0.282746,-0.181766 0.201962,-0.08078 0.525101,-0.121177 0.323138,-0.06059 0.848239,-0.06059 0.484708,0 0.828042,0.06059 0.343335,0.04039 0.525101,0.121177 0.201961,0.06059 0.282746,0.181766 0.08079,0.121177 0.08079,0.282746 v 15.793403 q 0,1.817655 0.444316,3.170798 0.444315,1.353144 1.272358,2.261971 0.848239,0.888632 2.019617,1.353143 1.191574,0.444316 2.665894,0.444316 1.514713,0 2.68609,-0.444316 1.191574,-0.444315 1.999421,-1.332947 0.828043,-0.888631 1.252162,-2.201382 0.444316,-1.312751 0.444316,-3.069817 V 41.100938 q 0,-0.161569 0.08078,-0.282746 0.08078,-0.121177 0.282746,-0.181766 0.201962,-0.08078 0.5251,-0.121177 0.343335,-0.06059 0.848239,-0.06059 0.484708,0 0.807847,0.06059 0.343335,0.04039 0.525101,0.121177 0.201961,0.06059 0.282746,0.181766 0.100981,0.121177 0.100981,0.282746 z"
       style="font-style:normal;font-variant:normal;font-weight:normal;font-stretch:normal;font-family:Calibri;-inkscape-font-specification:Calibri;stroke-width:1.03404367px;fill:#4d4d4d;fill-opacity:1"
       id="path10020" />
    <path
       d="m 56.445765,66.204774 q 0,0.16157 -0.08078,0.282747 -0.08079,0.100981 -0.26255,0.181765 -0.181766,0.08079 -0.504904,0.121177 -0.323139,0.04039 -0.807847,0.04039 -0.504904,0 -0.828043,-0.04039 -0.323139,-0.04039 -0.504904,-0.121177 -0.181766,-0.08078 -0.26255,-0.181765 -0.08078,-0.121177 -0.08078,-0.282747 v -10.64338 q 0,-1.555105 -0.242354,-2.504325 -0.242354,-0.94922 -0.706866,-1.635889 -0.464512,-0.68667 -1.21177,-1.050201 -0.727062,-0.363531 -1.696478,-0.363531 -1.252162,0 -2.504325,0.888631 -1.252162,0.888632 -2.625502,2.605306 v 12.703389 q 0,0.16157 -0.08078,0.282747 -0.08078,0.100981 -0.26255,0.181765 -0.181766,0.08079 -0.504905,0.121177 -0.323138,0.04039 -0.828043,0.04039 -0.484708,0 -0.807846,-0.04039 -0.323139,-0.04039 -0.525101,-0.121177 -0.181765,-0.08078 -0.26255,-0.181765 -0.06059,-0.121177 -0.06059,-0.282747 V 48.028223 q 0,-0.161569 0.06059,-0.26255 0.06059,-0.121177 0.242354,-0.201961 0.181766,-0.100981 0.464512,-0.121177 0.282746,-0.04039 0.747258,-0.04039 0.444316,0 0.727062,0.04039 0.302943,0.0202 0.464512,0.121177 0.16157,0.08078 0.222158,0.201961 0.08079,0.100981 0.08079,0.26255 v 2.403344 q 1.534908,-1.716674 3.049621,-2.504324 1.534909,-0.807847 3.090014,-0.807847 1.817655,0 3.049621,0.626081 1.252162,0.605885 2.019617,1.63589 0.767454,1.030004 1.090593,2.42354 0.343335,1.373339 0.343335,3.312171 z"
       style="font-style:normal;font-variant:normal;font-weight:normal;font-stretch:normal;font-family:Calibri;-inkscape-font-specification:Calibri;stroke-width:1.03404367px;fill:#4d4d4d;fill-opacity:1"
       id="path10022" />
    <path
       d="m 65.85718,66.204774 q 0,0.16157 -0.08079,0.282747 -0.08078,0.100981 -0.26255,0.181765 -0.181766,0.08079 -0.504904,0.121177 -0.323139,0.04039 -0.828043,0.04039 -0.484708,0 -0.807847,-0.04039 -0.323139,-0.04039 -0.5251,-0.121177 -0.181766,-0.08078 -0.262551,-0.181765 -0.06059,-0.121177 -0.06059,-0.282747 V 48.028223 q 0,-0.141373 0.06059,-0.26255 0.08078,-0.121177 0.262551,-0.201961 0.201961,-0.08079 0.5251,-0.121177 0.323139,-0.04039 0.807847,-0.04039 0.504904,0 0.828043,0.04039 0.323138,0.04039 0.504904,0.121177 0.181765,0.08078 0.26255,0.201961 0.08079,0.121177 0.08079,0.26255 z m 0.383727,-24.316186 q 0,1.171378 -0.444316,1.595498 -0.444316,0.424119 -1.63589,0.424119 -1.171377,0 -1.615693,-0.403923 -0.424119,-0.42412 -0.424119,-1.575301 0,-1.171378 0.444315,-1.595497 0.444316,-0.42412 1.63589,-0.42412 1.171378,0 1.595497,0.42412 0.444316,0.403923 0.444316,1.555104 z"
       style="font-style:normal;font-variant:normal;font-weight:normal;font-stretch:normal;font-family:Calibri;-inkscape-font-specification:Calibri;stroke-width:1.03404367px;fill:#4d4d4d;fill-opacity:1"
       id="path10024" />
    <path
       d="m 87.62865,73.414806 q 0,0.16157 -0.100981,0.282747 -0.08078,0.121177 -0.26255,0.201961 -0.181766,0.08079 -0.504904,0.121177 -0.323139,0.04039 -0.807847,0.04039 -0.504904,0 -0.828043,-0.04039 -0.302942,-0.04039 -0.504904,-0.121177 -0.201962,-0.08078 -0.282746,-0.201961 -0.06059,-0.121177 -0.06059,-0.282747 v -9.310433 q -0.828043,0.828043 -1.575301,1.413732 -0.747258,0.565492 -1.47432,0.929023 -0.727062,0.343335 -1.47432,0.484708 -0.727062,0.16157 -1.514713,0.16157 -1.979224,0 -3.37276,-0.767455 -1.393536,-0.78765 -2.282167,-2.100401 -0.868435,-1.332947 -1.272359,-3.11021 -0.403923,-1.797459 -0.403923,-3.776683 0,-2.342756 0.504904,-4.220999 0.504905,-1.89844 1.494517,-3.231387 1.009808,-1.332947 2.463932,-2.039813 1.47432,-0.727062 3.392956,-0.727062 0.807847,0 1.514713,0.181765 0.706866,0.16157 1.393536,0.545297 0.706865,0.363531 1.413731,0.969416 0.727062,0.585689 1.575301,1.413732 v -2.201383 q 0,-0.181765 0.08079,-0.282746 0.08078,-0.121177 0.26255,-0.201962 0.181766,-0.08078 0.464512,-0.10098 0.282746,-0.04039 0.706866,-0.04039 0.403923,0 0.68667,0.04039 0.282746,0.0202 0.444315,0.10098 0.181766,0.08078 0.242354,0.201962 0.08078,0.100981 0.08078,0.282746 z M 84.276086,53.4206 q -1.353143,-1.676282 -2.625502,-2.544717 -1.252162,-0.888631 -2.625501,-0.888631 -1.272359,0 -2.16099,0.605885 -0.888632,0.605885 -1.454124,1.595497 -0.545297,0.989612 -0.807847,2.241775 -0.242354,1.252162 -0.242354,2.544717 0,1.393535 0.201961,2.706286 0.222158,1.312751 0.747259,2.32256 0.5251,1.009808 1.393535,1.635889 0.868435,0.605885 2.181186,0.605885 0.666474,0 1.272359,-0.181765 0.626081,-0.181766 1.272359,-0.605885 0.646277,-0.42412 1.353143,-1.090593 0.706866,-0.68667 1.494516,-1.676282 z"
       style="font-style:normal;font-variant:normal;font-weight:normal;font-stretch:normal;font-family:Calibri;-inkscape-font-specification:Calibri;stroke-width:1.03404367px;fill:#4d4d4d;fill-opacity:1"
       id="path10026" />
    <path
       d="m 109.35973,66.204774 q 0,0.16157 -0.0808,0.282747 -0.0606,0.100981 -0.24235,0.181765 -0.18177,0.08079 -0.48471,0.121177 -0.28274,0.04039 -0.70686,0.04039 -0.46452,0 -0.76746,-0.04039 -0.28274,-0.04039 -0.46451,-0.121177 -0.16157,-0.08078 -0.22216,-0.181765 -0.0606,-0.121177 -0.0606,-0.282747 V 63.80143 q -1.5551,1.716675 -3.06981,2.504325 -1.51472,0.787651 -3.06982,0.787651 -1.817656,0 -3.069819,-0.605885 -1.231966,-0.605885 -1.99942,-1.63589 -0.767455,-1.050201 -1.110789,-2.42354 -0.323139,-1.393535 -0.323139,-3.37276 V 48.028223 q 0,-0.161569 0.06059,-0.26255 0.08078,-0.121177 0.282747,-0.201961 0.201961,-0.100981 0.5251,-0.121177 0.323139,-0.04039 0.807847,-0.04039 0.484708,0 0.807847,0.04039 0.323138,0.0202 0.504904,0.121177 0.201961,0.08078 0.282746,0.201961 0.08078,0.100981 0.08078,0.26255 v 10.582792 q 0,1.595498 0.222158,2.564914 0.242354,0.94922 0.706866,1.635889 0.484708,0.666474 1.21177,1.050201 0.727062,0.363531 1.696479,0.363531 1.25216,0 2.48413,-0.888631 1.25216,-0.888632 2.6457,-2.605306 v -12.70339 q 0,-0.161569 0.0606,-0.26255 0.0808,-0.121177 0.28275,-0.201961 0.20196,-0.100981 0.5049,-0.121177 0.32314,-0.04039 0.82805,-0.04039 0.48471,0 0.80784,0.04039 0.32314,0.0202 0.50491,0.121177 0.18176,0.08078 0.26255,0.201961 0.10098,0.100981 0.10098,0.26255 z"
       style="font-style:normal;font-variant:normal;font-weight:normal;font-stretch:normal;font-family:Calibri;-inkscape-font-specification:Calibri;stroke-width:1.03404367px;fill:#4d4d4d;fill-opacity:1"
       id="path10028" />
    <path
       d="m 131.03021,56.328848 q 0,0.787651 -0.40392,1.130986 -0.38373,0.323139 -0.88863,0.323139 h -11.91574 q 0,1.514712 0.30294,2.726482 0.30294,1.21177 1.00981,2.080205 0.70687,0.868436 1.83785,1.332948 1.13099,0.464511 2.76688,0.464511 1.29255,0 2.30236,-0.201961 1.00981,-0.222158 1.73687,-0.484708 0.74726,-0.262551 1.21177,-0.464512 0.48471,-0.222158 0.72706,-0.222158 0.14137,0 0.24236,0.08079 0.12117,0.06059 0.18176,0.201961 0.0606,0.141373 0.0808,0.403924 0.0404,0.242354 0.0404,0.605885 0,0.26255 -0.0202,0.464512 -0.0202,0.181765 -0.0606,0.343334 -0.0202,0.141374 -0.10098,0.262551 -0.0606,0.121177 -0.18176,0.242354 -0.10098,0.10098 -0.64628,0.363531 -0.5453,0.242354 -1.41373,0.484708 -0.86844,0.242354 -2.01962,0.424119 -1.13098,0.201962 -2.42354,0.201962 -2.24177,0 -3.93825,-0.626081 -1.67628,-0.626082 -2.82747,-1.858048 -1.15118,-1.231966 -1.73687,-3.090013 -0.58568,-1.858048 -0.58568,-4.32198 0,-2.342756 0.60588,-4.200803 0.60589,-1.878244 1.73687,-3.170799 1.15118,-1.31275 2.76688,-1.99942 1.61569,-0.706866 3.61511,-0.706866 2.14079,0 3.63531,0.68667 1.51471,0.686669 2.48413,1.858047 0.96941,1.151182 1.41373,2.726483 0.46451,1.555105 0.46451,3.332367 z m -3.35256,-0.989612 q 0.0606,-2.625502 -1.17138,-4.120018 -1.21177,-1.494516 -3.61511,-1.494516 -1.23197,0 -2.16099,0.464511 -0.92903,0.464512 -1.55511,1.231967 -0.62608,0.767454 -0.96941,1.797459 -0.34334,1.009808 -0.38373,2.120597 z"
       style="font-style:normal;font-variant:normal;font-weight:normal;font-stretch:normal;font-family:Calibri;-inkscape-font-specification:Calibri;stroke-width:1.03404367px;fill:#4d4d4d;fill-opacity:1"
       id="path10030" />
  </g>
</svg>
