<?xml version="1.0" encoding="UTF-8" standalone="no"?>
<svg
   xmlns:dc="http://purl.org/dc/elements/1.1/"
   xmlns:cc="http://creativecommons.org/ns#"
   xmlns:rdf="http://www.w3.org/1999/02/22-rdf-syntax-ns#"
   xmlns:svg="http://www.w3.org/2000/svg"
   xmlns="http://www.w3.org/2000/svg"
   xmlns:sodipodi="http://sodipodi.sourceforge.net/DTD/sodipodi-0.dtd"
   xmlns:inkscape="http://www.inkscape.org/namespaces/inkscape"
   id="svg880"
   version="1.1"
   viewBox="0 0 132.29166 132.29167"
   height="500"
   width="500"
   sodipodi:docname="color-submode-non-empty-bttn.svg"
   inkscape:version="0.92.2 (5c3e80d, 2017-08-06)">
  <sodipodi:namedview
     pagecolor="#ffffff"
     bordercolor="#666666"
     borderopacity="1"
     objecttolerance="10"
     gridtolerance="10"
     guidetolerance="10"
     inkscape:pageopacity="0"
     inkscape:pageshadow="2"
     inkscape:window-width="2560"
     inkscape:window-height="1360"
     id="namedview2637"
     showgrid="false"
     showguides="false"
     inkscape:zoom="1.4217003"
     inkscape:cx="190.77443"
     inkscape:cy="239.83151"
     inkscape:window-x="-11"
     inkscape:window-y="-11"
     inkscape:window-maximized="1"
     inkscape:current-layer="svg880" />
  <defs
     id="defs874">
    <marker
       inkscape:stockid="EmptyTriangleOutL"
       orient="auto"
       refY="0.0"
       refX="0.0"
       id="EmptyTriangleOutL"
       style="overflow:visible"
       inkscape:isstock="true">
      <path
         id="path1615"
         d="M 5.77,0.0 L -2.88,5.0 L -2.88,-5.0 L 5.77,0.0 z "
         style="fill-rule:evenodd;fill:#ffffff;stroke:#4d4d4d;stroke-width:1pt;stroke-opacity:1"
         transform="scale(0.8) translate(-6,0)" />
    </marker>
    <marker
       inkscape:stockid="Arrow1Lend"
       orient="auto"
       refY="0.0"
       refX="0.0"
       id="Arrow1Lend"
       style="overflow:visible;"
       inkscape:isstock="true">
      <path
         id="path1458"
         d="M 0.0,0.0 L 5.0,-5.0 L -12.5,0.0 L 5.0,5.0 L 0.0,0.0 z "
         style="fill-rule:evenodd;stroke:#000000;stroke-width:1pt;stroke-opacity:1;fill:#000000;fill-opacity:1"
         transform="scale(0.8) rotate(180) translate(12.5,0)" />
    </marker>
    <marker
       inkscape:stockid="DotL"
       orient="auto"
       refY="0.0"
       refX="0.0"
       id="DotL"
       style="overflow:visible"
       inkscape:isstock="true">
      <path
         id="path1516"
         d="M -2.5,-1.0 C -2.5,1.7600000 -4.7400000,4.0 -7.5,4.0 C -10.260000,4.0 -12.5,1.7600000 -12.5,-1.0 C -12.5,-3.7600000 -10.260000,-6.0 -7.5,-6.0 C -4.7400000,-6.0 -2.5,-3.7600000 -2.5,-1.0 z "
         style="fill-rule:evenodd;stroke:#4d4d4d;stroke-width:1pt;stroke-opacity:1;fill:#4d4d4d;fill-opacity:1"
         transform="scale(0.8) translate(7.4, 1)" />
    </marker>
    <marker
       inkscape:stockid="EmptyTriangleOutL"
       orient="auto"
       refY="0"
       refX="0"
       id="EmptyTriangleOutL-1"
       style="overflow:visible"
       inkscape:isstock="true">
      <path
         inkscape:connector-curvature="0"
         id="path1615-9"
         d="M 5.77,0 -2.88,5 V -5 Z"
         style="fill:#ffffff;fill-rule:evenodd;stroke:#4d4d4d;stroke-width:1.00000003pt;stroke-opacity:1"
         transform="matrix(0.8,0,0,0.8,-4.8,0)" />
    </marker>
    <marker
       inkscape:stockid="EmptyTriangleOutL"
       orient="auto"
       refY="0"
       refX="0"
       id="EmptyTriangleOutL-1-3"
       style="overflow:visible"
       inkscape:isstock="true">
      <path
         inkscape:connector-curvature="0"
         id="path1615-9-3"
         d="M 5.77,0 -2.88,5 V -5 Z"
         style="fill:#ffffff;fill-rule:evenodd;stroke:#4d4d4d;stroke-width:1.00000003pt;stroke-opacity:1"
         transform="matrix(0.8,0,0,0.8,-4.8,0)" />
    </marker>
    <marker
       inkscape:stockid="EmptyTriangleOutL"
       orient="auto"
       refY="0"
       refX="0"
       id="EmptyTriangleOutL-1-3-2"
       style="overflow:visible"
       inkscape:isstock="true">
      <path
         inkscape:connector-curvature="0"
         id="path1615-9-3-4"
         d="M 5.77,0 -2.88,5 V -5 Z"
         style="fill:#ffffff;fill-rule:evenodd;stroke:#4d4d4d;stroke-width:1.00000003pt;stroke-opacity:1"
         transform="matrix(0.8,0,0,0.8,-4.8,0)" />
    </marker>
  </defs>
  <metadata
     id="metadata877">
    <rdf:RDF>
      <cc:Work
         rdf:about="">
        <dc:format>image/svg+xml</dc:format>
        <dc:type
           rdf:resource="http://purl.org/dc/dcmitype/StillImage" />
        <dc:title></dc:title>
      </cc:Work>
    </rdf:RDF>
  </metadata>
  <g
     transform="translate(0,-164.70831)"
     id="layer1" />
  <g
     aria-label="Non Empty"
     transform="scale(0.85595245,1.1682892)"
     style="font-style:normal;font-weight:normal;font-size:33.48994446px;line-height:125%;font-family:sans-serif;letter-spacing:0px;word-spacing:0px;fill:#4d4d4d;fill-opacity:1;stroke:none;stroke-width:0.83724868px;stroke-linecap:butt;stroke-linejoin:miter;stroke-opacity:1"
     id="text9995">
    <path
       d="m 61.948049,42.695257 q 0,0.32705 -0.114467,0.555985 -0.09812,0.228935 -0.277993,0.376108 -0.163525,0.147173 -0.376108,0.212583 -0.212583,0.06541 -0.425165,0.06541 h -0.899388 q -0.425166,0 -0.752216,-0.08176 -0.310698,-0.09811 -0.605043,-0.32705 -0.277993,-0.245288 -0.572338,-0.654101 -0.277992,-0.408812 -0.621395,-1.04656 L 50.632111,29.76042 Q 50.10883,28.828327 49.569198,27.814471 49.045917,26.784263 48.588047,25.819464 h -0.0327 q 0.0327,1.177381 0.04906,2.40382 0.01635,1.226438 0.01635,2.436524 V 43.43112 q 0,0.114467 -0.06541,0.228935 -0.06541,0.09811 -0.228935,0.163525 -0.147173,0.04906 -0.408813,0.08176 -0.245288,0.04906 -0.637748,0.04906 -0.39246,0 -0.654101,-0.04906 -0.245287,-0.0327 -0.39246,-0.08176 -0.147172,-0.06541 -0.212582,-0.163525 -0.06541,-0.114468 -0.06541,-0.228935 V 23.906221 q 0,-0.654101 0.359756,-0.932094 0.359755,-0.277992 0.78492,-0.277992 h 1.340906 q 0.474223,0 0.784921,0.08176 0.32705,0.08176 0.572338,0.277993 0.26164,0.179878 0.490575,0.52328 0.245288,0.327051 0.523281,0.833978 l 5.134688,9.288227 q 0.474223,0.850331 0.915741,1.667956 0.441518,0.801273 0.850331,1.586194 0.408812,0.784921 0.801273,1.553489 0.408812,0.752215 0.801273,1.520783 h 0.01635 q -0.0327,-1.291848 -0.04906,-2.681812 0,-1.406316 0,-2.698164 V 23.170357 q 0,-0.114467 0.06541,-0.212582 0.06541,-0.09811 0.212582,-0.163525 0.163526,-0.08176 0.408813,-0.114468 0.26164,-0.0327 0.670453,-0.0327 0.359755,0 0.621396,0.0327 0.26164,0.0327 0.408812,0.114468 0.147173,0.06541 0.212583,0.163525 0.06541,0.09811 0.06541,0.212582 z"
       style="font-style:normal;font-variant:normal;font-weight:normal;font-stretch:normal;font-family:Calibri;-inkscape-font-specification:Calibri;text-align:center;text-anchor:middle;stroke-width:0.83724868px;fill:#4d4d4d;fill-opacity:1"
       id="path9999" />
    <path
       d="m 80.982374,35.925317 q 0,1.798776 -0.474223,3.31956 -0.474223,1.504431 -1.422669,2.600049 -0.932093,1.095618 -2.354762,1.717014 -1.406316,0.605043 -3.270502,0.605043 -1.815129,0 -3.172387,-0.539633 -1.340906,-0.539633 -2.240294,-1.569841 -0.899389,-1.030208 -1.340906,-2.501935 -0.441518,-1.471726 -0.441518,-3.335912 0,-1.798776 0.45787,-3.303207 0.474223,-1.520784 1.406316,-2.616402 0.948446,-1.095619 2.354762,-1.700662 1.406316,-0.605042 3.286855,-0.605042 1.815129,0 3.156035,0.539632 1.357258,0.539633 2.256646,1.569842 0.899388,1.030208 1.340906,2.501934 0.457871,1.471726 0.457871,3.31956 z m -2.845338,0.179877 q 0,-1.193733 -0.228935,-2.256646 -0.212582,-1.062913 -0.71951,-1.864187 -0.506928,-0.801273 -1.373611,-1.259143 -0.866683,-0.474223 -2.158532,-0.474223 -1.193733,0 -2.060416,0.425165 -0.850331,0.425166 -1.406316,1.210086 -0.555986,0.768568 -0.833978,1.831482 -0.261641,1.062913 -0.261641,2.322056 0,1.210086 0.212583,2.273 0.228935,1.062913 0.735863,1.864186 0.52328,0.78492 1.389964,1.259143 0.866683,0.457871 2.158531,0.457871 1.177381,0 2.044064,-0.425166 0.866683,-0.425165 1.422669,-1.193733 0.555985,-0.768568 0.817625,-1.831481 0.26164,-1.062914 0.26164,-2.33841 z"
       style="font-style:normal;font-variant:normal;font-weight:normal;font-stretch:normal;font-family:Calibri;-inkscape-font-specification:Calibri;text-align:center;text-anchor:middle;stroke-width:0.83724868px;fill:#4d4d4d;fill-opacity:1"
       id="path10001" />
    <path
       d="m 97.629231,43.447472 q 0,0.13082 -0.06541,0.228935 -0.06541,0.08176 -0.212583,0.147173 -0.147172,0.06541 -0.408812,0.09811 -0.261641,0.0327 -0.654101,0.0327 -0.408813,0 -0.670453,-0.0327 -0.26164,-0.0327 -0.408813,-0.09811 -0.147172,-0.06541 -0.212582,-0.147173 -0.06541,-0.09811 -0.06541,-0.228935 v -8.617773 q 0,-1.259144 -0.196231,-2.027712 -0.19623,-0.768568 -0.572338,-1.324553 -0.376107,-0.555986 -0.98115,-0.850331 -0.588691,-0.294345 -1.373611,-0.294345 -1.013856,0 -2.027712,0.71951 -1.013855,0.719511 -2.125826,2.109474 v 10.28573 q 0,0.13082 -0.06541,0.228935 -0.06541,0.08176 -0.212583,0.147173 -0.147173,0.06541 -0.408813,0.09811 -0.26164,0.0327 -0.670453,0.0327 -0.39246,0 -0.6541,-0.0327 -0.26164,-0.0327 -0.425166,-0.09811 -0.147172,-0.06541 -0.212582,-0.147173 -0.04906,-0.09811 -0.04906,-0.228935 v -14.71726 q 0,-0.130821 0.04906,-0.212583 0.04906,-0.09811 0.19623,-0.163525 0.147173,-0.08176 0.376108,-0.09811 0.228935,-0.0327 0.605043,-0.0327 0.359755,0 0.58869,0.0327 0.245288,0.01635 0.376108,0.09811 0.13082,0.06541 0.179877,0.163525 0.06541,0.08176 0.06541,0.212583 v 1.945948 q 1.24279,-1.389963 2.469229,-2.027711 1.242791,-0.6541 2.501934,-0.6541 1.471726,0 2.469229,0.506927 1.013856,0.490576 1.635252,1.324554 0.621395,0.833978 0.883035,1.962301 0.277993,1.111971 0.277993,2.681812 z"
       style="font-style:normal;font-variant:normal;font-weight:normal;font-stretch:normal;font-family:Calibri;-inkscape-font-specification:Calibri;text-align:center;text-anchor:middle;stroke-width:0.83724868px;fill:#4d4d4d;fill-opacity:1"
       id="path10003" />
    <path
       d="m 42.68479,85.807878 q 0,0.294345 -0.0327,0.52328 -0.0327,0.212583 -0.114468,0.359755 -0.08176,0.147173 -0.19623,0.212583 -0.09811,0.06541 -0.228935,0.06541 h -10.15491 q -0.376108,0 -0.71951,-0.245288 -0.327051,-0.26164 -0.327051,-0.899388 V 66.953431 q 0,-0.637748 0.327051,-0.883035 0.343402,-0.261641 0.71951,-0.261641 h 10.040443 q 0.13082,0 0.228935,0.06541 0.114467,0.06541 0.179877,0.212583 0.06541,0.147173 0.09811,0.376108 0.04906,0.212583 0.04906,0.539633 0,0.294345 -0.04906,0.52328 -0.0327,0.212583 -0.09811,0.359755 -0.06541,0.130821 -0.179877,0.196231 -0.09811,0.06541 -0.228935,0.06541 h -8.274371 v 6.63912 h 7.09699 q 0.13082,0 0.228935,0.08176 0.114467,0.06541 0.179878,0.19623 0.08176,0.13082 0.114467,0.359755 0.0327,0.228936 0.0327,0.539633 0,0.294346 -0.0327,0.506928 -0.0327,0.212583 -0.114467,0.343403 -0.06541,0.13082 -0.179878,0.19623 -0.09811,0.04906 -0.228935,0.04906 h -7.09699 v 7.571213 h 8.388838 q 0.13082,0 0.228935,0.06541 0.114468,0.06541 0.19623,0.212582 0.08176,0.13082 0.114468,0.359756 0.0327,0.212582 0.0327,0.539633 z"
       style="font-style:normal;font-variant:normal;font-weight:normal;font-stretch:normal;font-family:Calibri;-inkscape-font-specification:Calibri;text-align:center;text-anchor:middle;stroke-width:0.83724868px;fill:#4d4d4d;fill-opacity:1"
       id="path10005" />
    <path
       d="m 68.7834,86.560093 q 0,0.13082 -0.06541,0.228935 -0.06541,0.08176 -0.212583,0.147173 -0.147173,0.06541 -0.408813,0.09812 -0.26164,0.0327 -0.6541,0.0327 -0.408813,0 -0.670453,-0.0327 -0.261641,-0.03271 -0.425166,-0.09812 -0.147172,-0.06541 -0.212582,-0.147173 -0.06541,-0.09812 -0.06541,-0.228935 v -8.944824 q 0,-0.932093 -0.163526,-1.700661 -0.163525,-0.768568 -0.52328,-1.324554 -0.359755,-0.555985 -0.915741,-0.85033 -0.555985,-0.294345 -1.308201,-0.294345 -0.932093,0 -1.880538,0.71951 -0.932094,0.719511 -2.060417,2.109474 v 10.28573 q 0,0.13082 -0.06541,0.228935 -0.06541,0.08176 -0.228935,0.147173 -0.147173,0.06541 -0.408813,0.09812 -0.26164,0.0327 -0.6541,0.0327 -0.376108,0 -0.654101,-0.0327 -0.26164,-0.03271 -0.425165,-0.09812 -0.147173,-0.06541 -0.212583,-0.147173 -0.04906,-0.09812 -0.04906,-0.228935 v -8.944824 q 0,-0.932093 -0.179878,-1.700661 -0.179878,-0.768568 -0.539633,-1.324554 -0.359755,-0.555985 -0.915741,-0.85033 -0.539632,-0.294345 -1.291848,-0.294345 -0.932093,0 -1.880539,0.71951 -0.948446,0.719511 -2.060416,2.109474 v 10.28573 q 0,0.13082 -0.06541,0.228935 -0.06541,0.08176 -0.212583,0.147173 -0.147173,0.06541 -0.408813,0.09812 -0.26164,0.0327 -0.670453,0.0327 -0.39246,0 -0.6541,-0.0327 -0.261641,-0.03271 -0.425166,-0.09812 -0.147172,-0.06541 -0.212582,-0.147173 -0.04906,-0.09812 -0.04906,-0.228935 V 71.842832 q 0,-0.13082 0.04906,-0.212582 0.04906,-0.09812 0.19623,-0.163525 0.147172,-0.08176 0.376108,-0.09811 0.228935,-0.03271 0.605043,-0.03271 0.359755,0 0.58869,0.03271 0.245288,0.01635 0.376108,0.09811 0.13082,0.06541 0.179877,0.163525 0.06541,0.08176 0.06541,0.212582 v 1.945949 q 1.242791,-1.389963 2.40382,-2.027711 1.177381,-0.654101 2.371114,-0.654101 0.915741,0 1.635251,0.212583 0.735863,0.212583 1.291849,0.605043 0.555985,0.376108 0.948445,0.915741 0.39246,0.52328 0.654101,1.17738 0.735863,-0.801273 1.389963,-1.357258 0.670453,-0.555985 1.275496,-0.899388 0.621396,-0.343403 1.193734,-0.490576 0.58869,-0.163525 1.17738,-0.163525 1.422669,0 2.387467,0.506928 0.964798,0.490576 1.553489,1.324554 0.605043,0.833978 0.85033,1.962301 0.261641,1.111971 0.261641,2.354762 z"
       style="font-style:normal;font-variant:normal;font-weight:normal;font-stretch:normal;font-family:Calibri;-inkscape-font-specification:Calibri;text-align:center;text-anchor:middle;stroke-width:0.83724868px;fill:#4d4d4d;fill-opacity:1"
       id="path10007" />
    <path
       d="m 87.245388,78.972528 q 0,1.929596 -0.425165,3.466732 -0.408813,1.537136 -1.226438,2.616402 -0.801274,1.062913 -1.995007,1.651604 -1.193733,0.572338 -2.730869,0.572338 -0.654101,0 -1.210086,-0.13082 -0.555986,-0.130821 -1.095619,-0.408813 -0.52328,-0.277993 -1.04656,-0.703158 -0.523281,-0.425166 -1.111971,-0.997504 v 7.358631 q 0,0.13082 -0.06541,0.228935 -0.06541,0.09812 -0.212583,0.163525 -0.147172,0.06541 -0.408813,0.09811 -0.26164,0.03271 -0.670453,0.03271 -0.39246,0 -0.6541,-0.03271 -0.26164,-0.0327 -0.425165,-0.09811 -0.147173,-0.06541 -0.212583,-0.163525 -0.04906,-0.09811 -0.04906,-0.228935 V 71.842832 q 0,-0.147172 0.04906,-0.228935 0.04906,-0.09811 0.19623,-0.163525 0.147173,-0.06541 0.376108,-0.08176 0.228935,-0.03271 0.555985,-0.03271 0.343403,0 0.555986,0.03271 0.228935,0.01635 0.376107,0.08176 0.147173,0.06541 0.196231,0.163525 0.06541,0.08176 0.06541,0.228935 v 1.978654 q 0.670453,-0.686805 1.291848,-1.193733 0.621395,-0.506928 1.242791,-0.833978 0.637748,-0.343403 1.291848,-0.506928 0.670453,-0.179878 1.406316,-0.179878 1.602547,0 2.73087,0.621396 1.128323,0.621395 1.831481,1.700661 0.719511,1.079266 1.046561,2.518287 0.32705,1.422668 0.32705,3.025215 z m -2.845337,0.310697 q 0,-1.128323 -0.179877,-2.174884 -0.163526,-1.062913 -0.588691,-1.880539 -0.408813,-0.817625 -1.111971,-1.308201 -0.703158,-0.490575 -1.749718,-0.490575 -0.523281,0 -1.030209,0.163525 -0.506928,0.147173 -1.030208,0.490575 -0.52328,0.327051 -1.095618,0.883036 -0.572338,0.539633 -1.210086,1.340906 v 5.854199 q 1.111971,1.357259 2.109474,2.076769 0.997503,0.719511 2.093121,0.719511 1.013856,0 1.733367,-0.490575 0.735863,-0.490576 1.177381,-1.308201 0.45787,-0.817626 0.670453,-1.831482 0.212582,-1.013855 0.212582,-2.044064 z"
       style="font-style:normal;font-variant:normal;font-weight:normal;font-stretch:normal;font-family:Calibri;-inkscape-font-specification:Calibri;text-align:center;text-anchor:middle;stroke-width:0.83724868px;fill:#4d4d4d;fill-opacity:1"
       id="path10009" />
    <path
       d="m 98.822965,85.480827 q 0,0.474223 -0.06541,0.752216 -0.06541,0.277993 -0.19623,0.408813 -0.13082,0.13082 -0.39246,0.245287 -0.26164,0.114468 -0.605043,0.179878 -0.32705,0.08176 -0.703158,0.13082 -0.376108,0.04906 -0.752216,0.04906 -1.144676,0 -1.962301,-0.294346 -0.817626,-0.310697 -1.340906,-0.91574 -0.52328,-0.621396 -0.768568,-1.553489 -0.228935,-0.948446 -0.228935,-2.223942 v -8.601421 h -2.060417 q -0.245288,0 -0.39246,-0.26164 -0.147173,-0.26164 -0.147173,-0.850331 0,-0.310697 0.0327,-0.52328 0.04906,-0.212583 0.114468,-0.343403 0.06541,-0.147172 0.163525,-0.19623 0.114468,-0.06541 0.245288,-0.06541 h 2.044064 v -3.499438 q 0,-0.114467 0.04906,-0.212582 0.06541,-0.09811 0.212583,-0.163525 0.163525,-0.08176 0.425165,-0.114468 0.26164,-0.03271 0.654101,-0.03271 0.408812,0 0.670453,0.03271 0.26164,0.0327 0.408812,0.114468 0.147173,0.06541 0.212583,0.163525 0.06541,0.09812 0.06541,0.212582 v 3.499438 h 3.77743 q 0.130821,0 0.228936,0.06541 0.09811,0.04906 0.163525,0.19623 0.08176,0.13082 0.114467,0.343403 0.0327,0.212583 0.0327,0.52328 0,0.588691 -0.147172,0.850331 -0.147173,0.26164 -0.392461,0.26164 h -3.77743 v 8.208961 q 0,1.520784 0.441518,2.305704 0.45787,0.768568 1.618899,0.768568 0.376107,0 0.670453,-0.06541 0.294345,-0.08176 0.52328,-0.163525 0.228935,-0.08176 0.39246,-0.147172 0.163525,-0.08176 0.294346,-0.08176 0.08176,0 0.147172,0.04906 0.08176,0.03271 0.114468,0.147172 0.04906,0.114468 0.08176,0.310698 0.0327,0.19623 0.0327,0.490575 z"
       style="font-style:normal;font-variant:normal;font-weight:normal;font-stretch:normal;font-family:Calibri;-inkscape-font-specification:Calibri;text-align:center;text-anchor:middle;stroke-width:0.83724868px;fill:#4d4d4d;fill-opacity:1"
       id="path10011" />
    <path
       d="m 109.12505,86.968906 -1.9623,5.412681 q -0.0981,0.261641 -0.50693,0.392461 -0.39246,0.147172 -1.21009,0.147172 -0.42516,0 -0.6868,-0.04906 -0.26164,-0.03271 -0.40881,-0.13082 -0.13082,-0.09812 -0.14718,-0.261641 -0.0164,-0.163525 0.0818,-0.39246 l 2.02771,-5.118336 q -0.14717,-0.06541 -0.27799,-0.212583 -0.13083,-0.147172 -0.17988,-0.310697 l -5.24916,-14.063161 q -0.13082,-0.343403 -0.13082,-0.539633 0,-0.19623 0.13082,-0.310697 0.13082,-0.114468 0.42517,-0.147173 0.29434,-0.04906 0.78492,-0.04906 0.49057,0 0.76857,0.03271 0.27799,0.01635 0.44151,0.08176 0.16353,0.06541 0.22894,0.19623 0.0818,0.114468 0.16352,0.32705 l 4.2026,11.806514 h 0.0491 l 4.05542,-11.871924 q 0.0981,-0.310697 0.22893,-0.39246 0.14718,-0.09812 0.42517,-0.13082 0.27799,-0.04906 0.80127,-0.04906 0.45787,0 0.75222,0.04906 0.29434,0.0327 0.42516,0.147173 0.14718,0.114467 0.14718,0.310697 0,0.19623 -0.0981,0.490576 z"
       style="font-style:normal;font-variant:normal;font-weight:normal;font-stretch:normal;font-family:Calibri;-inkscape-font-specification:Calibri;text-align:center;text-anchor:middle;stroke-width:0.83724868px;fill:#4d4d4d;fill-opacity:1"
       id="path10013" />
  </g>
</svg>
