<?xml version="1.0" encoding="UTF-8" standalone="no"?>
<svg
   xmlns:dc="http://purl.org/dc/elements/1.1/"
   xmlns:cc="http://creativecommons.org/ns#"
   xmlns:rdf="http://www.w3.org/1999/02/22-rdf-syntax-ns#"
   xmlns:svg="http://www.w3.org/2000/svg"
   xmlns="http://www.w3.org/2000/svg"
   xmlns:sodipodi="http://sodipodi.sourceforge.net/DTD/sodipodi-0.dtd"
   xmlns:inkscape="http://www.inkscape.org/namespaces/inkscape"
   id="svg880"
   version="1.1"
   viewBox="0 0 132.29166 132.29167"
   height="500"
   width="500"
   sodipodi:docname="color-submode-non-empty-bttn.svg"
   inkscape:version="0.92.2 (5c3e80d, 2017-08-06)">
  <sodipodi:namedview
     pagecolor="#ffffff"
     bordercolor="#666666"
     borderopacity="1"
     objecttolerance="10"
     gridtolerance="10"
     guidetolerance="10"
     inkscape:pageopacity="0"
     inkscape:pageshadow="2"
     inkscape:window-width="2560"
     inkscape:window-height="1360"
     id="namedview2637"
     showgrid="false"
     showguides="false"
     inkscape:zoom="2.0105878"
     inkscape:cx="233.42715"
     inkscape:cy="243.49274"
     inkscape:window-x="-11"
     inkscape:window-y="-11"
     inkscape:window-maximized="1"
     inkscape:current-layer="svg880" />
  <defs
     id="defs874">
    <marker
       inkscape:stockid="EmptyTriangleOutL"
       orient="auto"
       refY="0.0"
       refX="0.0"
       id="EmptyTriangleOutL"
       style="overflow:visible"
       inkscape:isstock="true">
      <path
         id="path1615"
         d="M 5.77,0.0 L -2.88,5.0 L -2.88,-5.0 L 5.77,0.0 z "
         style="fill-rule:evenodd;fill:#ffffff;stroke:#4d4d4d;stroke-width:1pt;stroke-opacity:1"
         transform="scale(0.8) translate(-6,0)" />
    </marker>
    <marker
       inkscape:stockid="Arrow1Lend"
       orient="auto"
       refY="0.0"
       refX="0.0"
       id="Arrow1Lend"
       style="overflow:visible;"
       inkscape:isstock="true">
      <path
         id="path1458"
         d="M 0.0,0.0 L 5.0,-5.0 L -12.5,0.0 L 5.0,5.0 L 0.0,0.0 z "
         style="fill-rule:evenodd;stroke:#000000;stroke-width:1pt;stroke-opacity:1;fill:#000000;fill-opacity:1"
         transform="scale(0.8) rotate(180) translate(12.5,0)" />
    </marker>
    <marker
       inkscape:stockid="DotL"
       orient="auto"
       refY="0.0"
       refX="0.0"
       id="DotL"
       style="overflow:visible"
       inkscape:isstock="true">
      <path
         id="path1516"
         d="M -2.5,-1.0 C -2.5,1.7600000 -4.7400000,4.0 -7.5,4.0 C -10.260000,4.0 -12.5,1.7600000 -12.5,-1.0 C -12.5,-3.7600000 -10.260000,-6.0 -7.5,-6.0 C -4.7400000,-6.0 -2.5,-3.7600000 -2.5,-1.0 z "
         style="fill-rule:evenodd;stroke:#4d4d4d;stroke-width:1pt;stroke-opacity:1;fill:#4d4d4d;fill-opacity:1"
         transform="scale(0.8) translate(7.4, 1)" />
    </marker>
    <marker
       inkscape:stockid="EmptyTriangleOutL"
       orient="auto"
       refY="0"
       refX="0"
       id="EmptyTriangleOutL-1"
       style="overflow:visible"
       inkscape:isstock="true">
      <path
         inkscape:connector-curvature="0"
         id="path1615-9"
         d="M 5.77,0 -2.88,5 V -5 Z"
         style="fill:#ffffff;fill-rule:evenodd;stroke:#4d4d4d;stroke-width:1.00000003pt;stroke-opacity:1"
         transform="matrix(0.8,0,0,0.8,-4.8,0)" />
    </marker>
    <marker
       inkscape:stockid="EmptyTriangleOutL"
       orient="auto"
       refY="0"
       refX="0"
       id="EmptyTriangleOutL-1-3"
       style="overflow:visible"
       inkscape:isstock="true">
      <path
         inkscape:connector-curvature="0"
         id="path1615-9-3"
         d="M 5.77,0 -2.88,5 V -5 Z"
         style="fill:#ffffff;fill-rule:evenodd;stroke:#4d4d4d;stroke-width:1.00000003pt;stroke-opacity:1"
         transform="matrix(0.8,0,0,0.8,-4.8,0)" />
    </marker>
    <marker
       inkscape:stockid="EmptyTriangleOutL"
       orient="auto"
       refY="0"
       refX="0"
       id="EmptyTriangleOutL-1-3-2"
       style="overflow:visible"
       inkscape:isstock="true">
      <path
         inkscape:connector-curvature="0"
         id="path1615-9-3-4"
         d="M 5.77,0 -2.88,5 V -5 Z"
         style="fill:#ffffff;fill-rule:evenodd;stroke:#4d4d4d;stroke-width:1.00000003pt;stroke-opacity:1"
         transform="matrix(0.8,0,0,0.8,-4.8,0)" />
    </marker>
  </defs>
  <metadata
     id="metadata877">
    <rdf:RDF>
      <cc:Work
         rdf:about="">
        <dc:format>image/svg+xml</dc:format>
        <dc:type
           rdf:resource="http://purl.org/dc/dcmitype/StillImage" />
        <dc:title></dc:title>
      </cc:Work>
    </rdf:RDF>
  </metadata>
  <g
     transform="translate(0,-164.70831)"
     id="layer1" />
  <g
     aria-label="NE"
     style="font-style:normal;font-weight:normal;font-size:97.64176941px;line-height:125%;font-family:sans-serif;letter-spacing:0px;word-spacing:0px;fill:#000000;fill-opacity:1;stroke:none;stroke-width:2.44104409px;stroke-linecap:butt;stroke-linejoin:miter;stroke-opacity:1"
     id="text1486"
     transform="matrix(1.277714,0,0,1.277714,-23.067508,-11.476872)">
    <path
       d="m 68.089244,88.357161 q 0,0.953533 -0.333737,1.621006 -0.28606,0.667473 -0.810503,1.096563 -0.476766,0.42909 -1.096563,0.619796 -0.619796,0.190707 -1.239592,0.190707 h -2.622216 q -1.239593,0 -2.193126,-0.238384 -0.905856,-0.286059 -1.764035,-0.953532 -0.810503,-0.71515 -1.668683,-1.907066 -0.810503,-1.191916 -1.811713,-3.051306 L 35.097005,50.644935 q -1.525652,-2.717569 -3.098982,-5.673521 -1.525652,-3.003629 -2.860598,-5.816551 h -0.09535 q 0.09535,3.432719 0.14303,7.008467 0.04768,3.575748 0.04768,7.10382 v 37.23546 q 0,0.333736 -0.190707,0.667473 -0.190706,0.28606 -0.667473,0.476766 -0.42909,0.14303 -1.191916,0.238384 -0.71515,0.14303 -1.859389,0.14303 -1.14424,0 -1.907066,-0.14303 -0.71515,-0.09535 -1.144239,-0.238384 -0.42909,-0.190706 -0.619797,-0.476766 -0.190706,-0.333737 -0.190706,-0.667473 V 33.576696 q 0,-1.907066 1.048886,-2.717569 1.048886,-0.810503 2.288479,-0.810503 h 3.909485 q 1.382622,0 2.288479,0.238383 0.953533,0.238383 1.668682,0.810503 0.762827,0.524443 1.4303,1.525653 0.715149,0.953533 1.525652,2.431509 l 14.970467,27.080334 q 1.382623,2.479186 2.669892,4.863018 1.287269,2.336156 2.479186,4.624634 1.191916,2.288479 2.336155,4.529282 1.191916,2.193125 2.336156,4.433928 h 0.04768 q -0.09535,-3.766455 -0.143029,-7.81897 0,-4.100192 0,-7.866646 V 31.431247 q 0,-0.333737 0.190706,-0.619797 0.190707,-0.28606 0.619797,-0.476766 0.476766,-0.238384 1.191916,-0.333737 0.762826,-0.09535 1.954742,-0.09535 1.048886,0 1.811713,0.09535 0.762826,0.09535 1.191916,0.333737 0.42909,0.190706 0.619796,0.476766 0.190707,0.28606 0.190707,0.619797 z"
       style="font-style:normal;font-variant:normal;font-weight:normal;font-stretch:normal;font-family:Calibri;-inkscape-font-specification:Calibri;fill:#4d4d4d;fill-opacity:1;stroke-width:2.44104409px"
       id="path1488"
       inkscape:connector-curvature="0" />
    <path
       d="m 118.91255,88.357161 q 0,0.85818 -0.0954,1.525653 -0.0953,0.619796 -0.33373,1.048886 -0.23839,0.42909 -0.57212,0.619796 -0.28606,0.190707 -0.66747,0.190707 H 87.636668 q -1.096562,0 -2.097772,-0.71515 -0.953533,-0.762826 -0.953533,-2.622215 V 33.385989 q 0,-1.859389 0.953533,-2.574539 1.00121,-0.762826 2.097772,-0.762826 h 29.273462 q 0.38141,0 0.66747,0.190706 0.33374,0.190707 0.52444,0.619797 0.19071,0.42909 0.28606,1.096563 0.14303,0.619796 0.14303,1.573329 0,0.85818 -0.14303,1.525653 -0.0953,0.619796 -0.28606,1.048886 -0.1907,0.381413 -0.52444,0.57212 -0.28606,0.190706 -0.66747,0.190706 H 92.785746 v 19.356718 h 20.691664 q 0.38141,0 0.66747,0.238383 0.33374,0.190707 0.52445,0.57212 0.23838,0.381413 0.33373,1.048886 0.0954,0.667473 0.0954,1.57333 0,0.858179 -0.0954,1.477976 -0.0954,0.619796 -0.33373,1.001209 -0.19071,0.381413 -0.52445,0.57212 -0.28606,0.14303 -0.66747,0.14303 H 92.785746 v 22.074286 h 24.458124 q 0.38141,0 0.66747,0.190707 0.33373,0.190707 0.57212,0.619796 0.23838,0.381414 0.33373,1.048887 0.0954,0.619796 0.0954,1.573329 z"
       style="font-style:normal;font-variant:normal;font-weight:normal;font-stretch:normal;font-family:Calibri;-inkscape-font-specification:Calibri;fill:#4d4d4d;fill-opacity:1;stroke-width:2.44104409px"
       id="path1490"
       inkscape:connector-curvature="0" />
  </g>
</svg>
